<mxfile host="app.diagrams.net" agent="Mozilla/5.0 (Macintosh; Intel Mac OS X 10_15_7) AppleWebKit/537.36 (KHTML, like Gecko) Chrome/129.0.0.0 Safari/537.36" version="24.7.17" pages="2">
  <diagram name="Page-1" id="B-NXQfdj9lT-cmG35u87">
    <mxGraphModel dx="2922" dy="1773" grid="0" gridSize="10" guides="1" tooltips="1" connect="1" arrows="1" fold="1" page="0" pageScale="1" pageWidth="827" pageHeight="1169" math="0" shadow="0">
      <root>
        <mxCell id="0" />
        <mxCell id="1" parent="0" />
        <mxCell id="HA0lHsWeE3cm6nTAC_Fw-3" value="" style="whiteSpace=wrap;html=1;aspect=fixed;fillColor=#b0e3e6;strokeColor=#0e8088;" parent="1" vertex="1">
          <mxGeometry x="-69" y="-219" width="782" height="782" as="geometry" />
        </mxCell>
        <mxCell id="8leqp02ebylX3cAgB8gu-1" value="id=0 - 380000&lt;div&gt;Status = 1&lt;/div&gt;" style="rounded=0;whiteSpace=wrap;html=1;fillColor=#fff2cc;strokeColor=#d6b656;" parent="1" vertex="1">
          <mxGeometry x="120" y="270" width="400" height="60" as="geometry" />
        </mxCell>
        <mxCell id="8leqp02ebylX3cAgB8gu-2" value="id=380001 - 4000000&lt;div&gt;Status = 0&lt;/div&gt;" style="rounded=0;whiteSpace=wrap;html=1;fillColor=#d5e8d4;strokeColor=#82b366;" parent="1" vertex="1">
          <mxGeometry x="520" y="270" width="157" height="60" as="geometry" />
        </mxCell>
        <mxCell id="8leqp02ebylX3cAgB8gu-3" value="" style="shape=flexArrow;endArrow=classic;html=1;rounded=0;fillColor=default;" parent="1" edge="1">
          <mxGeometry width="50" height="50" relative="1" as="geometry">
            <mxPoint x="479" y="382" as="sourcePoint" />
            <mxPoint x="529" y="332" as="targetPoint" />
          </mxGeometry>
        </mxCell>
        <mxCell id="8leqp02ebylX3cAgB8gu-4" value="" style="shape=flexArrow;endArrow=classic;html=1;rounded=0;fillColor=default;" parent="1" edge="1">
          <mxGeometry width="50" height="50" relative="1" as="geometry">
            <mxPoint x="80" y="382" as="sourcePoint" />
            <mxPoint x="130" y="332" as="targetPoint" />
          </mxGeometry>
        </mxCell>
        <mxCell id="8leqp02ebylX3cAgB8gu-5" value="&lt;pre class=&quot;graf graf--pre&quot;&gt;Create Date:&lt;/pre&gt;&lt;pre class=&quot;graf graf--pre&quot;&gt;2012-01-01 00:00:00&lt;/pre&gt;" style="text;html=1;align=center;verticalAlign=middle;whiteSpace=wrap;rounded=0;" parent="1" vertex="1">
          <mxGeometry x="25" y="398" width="140" height="44" as="geometry" />
        </mxCell>
        <mxCell id="8leqp02ebylX3cAgB8gu-6" value="&lt;pre class=&quot;graf graf--pre&quot;&gt;Create Date:&lt;/pre&gt;&lt;pre class=&quot;graf graf--pre&quot;&gt;2012-09-20 21:20:00&lt;/pre&gt;" style="text;html=1;align=center;verticalAlign=middle;whiteSpace=wrap;rounded=0;" parent="1" vertex="1">
          <mxGeometry x="373" y="396" width="140" height="48" as="geometry" />
        </mxCell>
        <mxCell id="8leqp02ebylX3cAgB8gu-15" value="part2" parent="0" />
        <mxCell id="HA0lHsWeE3cm6nTAC_Fw-1" style="edgeStyle=orthogonalEdgeStyle;rounded=0;orthogonalLoop=1;jettySize=auto;html=1;entryX=0.5;entryY=0;entryDx=0;entryDy=0;" parent="8leqp02ebylX3cAgB8gu-15" source="8leqp02ebylX3cAgB8gu-10" target="8leqp02ebylX3cAgB8gu-19" edge="1">
          <mxGeometry relative="1" as="geometry">
            <Array as="points">
              <mxPoint x="569" y="-26" />
              <mxPoint x="599" y="-26" />
            </Array>
          </mxGeometry>
        </mxCell>
        <mxCell id="8leqp02ebylX3cAgB8gu-10" value="Data we are going to query" style="rounded=0;whiteSpace=wrap;html=1;fillColor=#dae8fc;strokeColor=#6c8ebf;" parent="8leqp02ebylX3cAgB8gu-15" vertex="1">
          <mxGeometry x="522.5" y="-104" width="93.5" height="66" as="geometry" />
        </mxCell>
        <mxCell id="8leqp02ebylX3cAgB8gu-11" value="" style="shape=flexArrow;endArrow=classic;html=1;rounded=0;fillColor=default;" parent="8leqp02ebylX3cAgB8gu-15" edge="1">
          <mxGeometry width="50" height="50" relative="1" as="geometry">
            <mxPoint x="623" y="384" as="sourcePoint" />
            <mxPoint x="574" y="334" as="targetPoint" />
          </mxGeometry>
        </mxCell>
        <mxCell id="8leqp02ebylX3cAgB8gu-14" value="&lt;pre class=&quot;graf graf--pre&quot;&gt;Create Date:&lt;/pre&gt;&lt;pre class=&quot;graf graf--pre&quot;&gt;&amp;lt;2012-09-20 21:20:00&lt;/pre&gt;&lt;pre class=&quot;graf graf--pre&quot;&gt;+10000 minutes&lt;/pre&gt;" style="text;html=1;align=center;verticalAlign=middle;whiteSpace=wrap;rounded=0;" parent="8leqp02ebylX3cAgB8gu-15" vertex="1">
          <mxGeometry x="549" y="390" width="140" height="88" as="geometry" />
        </mxCell>
        <mxCell id="8leqp02ebylX3cAgB8gu-18" value="1" style="rounded=0;whiteSpace=wrap;html=1;fillColor=#f8cecc;strokeColor=#b85450;" parent="8leqp02ebylX3cAgB8gu-15" vertex="1">
          <mxGeometry x="216" y="-10" width="162" height="60" as="geometry" />
        </mxCell>
        <mxCell id="8leqp02ebylX3cAgB8gu-29" style="edgeStyle=orthogonalEdgeStyle;rounded=0;orthogonalLoop=1;jettySize=auto;html=1;entryX=0.5;entryY=0;entryDx=0;entryDy=0;" parent="8leqp02ebylX3cAgB8gu-15" source="8leqp02ebylX3cAgB8gu-19" target="8leqp02ebylX3cAgB8gu-24" edge="1">
          <mxGeometry relative="1" as="geometry" />
        </mxCell>
        <mxCell id="8leqp02ebylX3cAgB8gu-19" value="0" style="rounded=0;whiteSpace=wrap;html=1;fillColor=#f8cecc;strokeColor=#b85450;" parent="8leqp02ebylX3cAgB8gu-15" vertex="1">
          <mxGeometry x="522.5" y="-12" width="152" height="60" as="geometry" />
        </mxCell>
        <mxCell id="8leqp02ebylX3cAgB8gu-20" value="status" style="rounded=0;whiteSpace=wrap;html=1;fillColor=#1ba1e2;fontColor=#ffffff;strokeColor=#006EAF;" parent="8leqp02ebylX3cAgB8gu-15" vertex="1">
          <mxGeometry x="-49" y="-10" width="94" height="60" as="geometry" />
        </mxCell>
        <mxCell id="8leqp02ebylX3cAgB8gu-21" value="execution_time" style="rounded=0;whiteSpace=wrap;html=1;fillColor=#1ba1e2;fontColor=#ffffff;strokeColor=#006EAF;" parent="8leqp02ebylX3cAgB8gu-15" vertex="1">
          <mxGeometry x="-49" y="162" width="94" height="60" as="geometry" />
        </mxCell>
        <mxCell id="8leqp02ebylX3cAgB8gu-22" value="create_date" style="rounded=0;whiteSpace=wrap;html=1;fillColor=#1ba1e2;fontColor=#ffffff;strokeColor=#006EAF;" parent="8leqp02ebylX3cAgB8gu-15" vertex="1">
          <mxGeometry x="-49" y="77" width="94" height="60" as="geometry" />
        </mxCell>
        <mxCell id="8leqp02ebylX3cAgB8gu-23" value="&lt;pre class=&quot;graf graf--pre&quot;&gt;&lt;font face=&quot;Helvetica&quot;&gt;&lt;span style=&quot;white-space: normal;&quot;&gt;0-99&lt;/span&gt;&lt;/font&gt;&lt;/pre&gt;" style="rounded=0;whiteSpace=wrap;html=1;fillColor=#f8cecc;strokeColor=#b85450;" parent="8leqp02ebylX3cAgB8gu-15" vertex="1">
          <mxGeometry x="145.5" y="162" width="303" height="60" as="geometry" />
        </mxCell>
        <mxCell id="8leqp02ebylX3cAgB8gu-30" style="edgeStyle=orthogonalEdgeStyle;rounded=0;orthogonalLoop=1;jettySize=auto;html=1;" parent="8leqp02ebylX3cAgB8gu-15" source="8leqp02ebylX3cAgB8gu-24" target="8leqp02ebylX3cAgB8gu-26" edge="1">
          <mxGeometry relative="1" as="geometry" />
        </mxCell>
        <mxCell id="8leqp02ebylX3cAgB8gu-24" value="&lt;pre class=&quot;graf graf--pre&quot;&gt;&lt;span style=&quot;background-color: initial; font-family: Helvetica; white-space: normal;&quot;&gt;&amp;gt;&lt;/span&gt;2012-09-20 21:20:00&lt;/pre&gt;" style="rounded=0;whiteSpace=wrap;html=1;fillColor=#f8cecc;strokeColor=#b85450;" parent="8leqp02ebylX3cAgB8gu-15" vertex="1">
          <mxGeometry x="520" y="80" width="157" height="60" as="geometry" />
        </mxCell>
        <mxCell id="8leqp02ebylX3cAgB8gu-25" value="&lt;pre class=&quot;graf graf--pre&quot;&gt;&lt;span style=&quot;background-color: initial; font-family: Helvetica; white-space: normal;&quot;&gt;2012-01-01 00:00:00 -&amp;nbsp;&lt;/span&gt;2012-09-20 21:20:00&lt;/pre&gt;" style="rounded=0;whiteSpace=wrap;html=1;fillColor=#f8cecc;strokeColor=#b85450;" parent="8leqp02ebylX3cAgB8gu-15" vertex="1">
          <mxGeometry x="145.5" y="77" width="303" height="60" as="geometry" />
        </mxCell>
        <mxCell id="8leqp02ebylX3cAgB8gu-26" value="&lt;pre class=&quot;graf graf--pre&quot;&gt;&lt;font face=&quot;Helvetica&quot;&gt;&lt;span style=&quot;white-space: normal;&quot;&gt;0-99&lt;/span&gt;&lt;/font&gt;&lt;/pre&gt;" style="rounded=0;whiteSpace=wrap;html=1;fillColor=#f8cecc;strokeColor=#b85450;" parent="8leqp02ebylX3cAgB8gu-15" vertex="1">
          <mxGeometry x="520" y="159" width="157" height="60" as="geometry" />
        </mxCell>
        <mxCell id="8leqp02ebylX3cAgB8gu-31" style="edgeStyle=orthogonalEdgeStyle;rounded=0;orthogonalLoop=1;jettySize=auto;html=1;entryX=0.076;entryY=0;entryDx=0;entryDy=0;entryPerimeter=0;" parent="8leqp02ebylX3cAgB8gu-15" source="8leqp02ebylX3cAgB8gu-26" target="8leqp02ebylX3cAgB8gu-2" edge="1">
          <mxGeometry relative="1" as="geometry" />
        </mxCell>
      </root>
    </mxGraphModel>
  </diagram>
  <diagram id="Y7cQ3jqn8JZCrGKUY3XV" name="Page-2">
    <mxGraphModel dx="1747" dy="1711" grid="0" gridSize="10" guides="1" tooltips="1" connect="1" arrows="1" fold="1" page="1" pageScale="1" pageWidth="827" pageHeight="1169" math="0" shadow="0">
      <root>
        <mxCell id="0" />
        <mxCell id="1" parent="0" />
        <mxCell id="dPNxguPu4gz0hhFSu7R7-1" value="id=0 - 380000&lt;div&gt;Status = 1&lt;/div&gt;" style="rounded=0;whiteSpace=wrap;html=1;fillColor=#fff2cc;strokeColor=#d6b656;" vertex="1" parent="1">
          <mxGeometry x="-132" y="355" width="626" height="60" as="geometry" />
        </mxCell>
        <mxCell id="dPNxguPu4gz0hhFSu7R7-2" value="id=380001 - 400000&lt;div&gt;Status = 0&lt;/div&gt;" style="rounded=0;whiteSpace=wrap;html=1;fillColor=#d5e8d4;strokeColor=#82b366;" vertex="1" parent="1">
          <mxGeometry x="520" y="355" width="440" height="60" as="geometry" />
        </mxCell>
        <mxCell id="o8rw83za9aMopGADPDXD-7" style="edgeStyle=orthogonalEdgeStyle;rounded=0;orthogonalLoop=1;jettySize=auto;html=1;entryX=0.5;entryY=0;entryDx=0;entryDy=0;jumpStyle=none;fillColor=#e51400;strokeColor=#B20000;" edge="1" parent="1" source="dPNxguPu4gz0hhFSu7R7-9" target="FqFkVFzxnZ7qkO9W-dHn-5">
          <mxGeometry relative="1" as="geometry">
            <Array as="points">
              <mxPoint x="1057" y="39" />
              <mxPoint x="-51" y="39" />
            </Array>
          </mxGeometry>
        </mxCell>
        <mxCell id="dPNxguPu4gz0hhFSu7R7-9" value="1" style="rounded=0;whiteSpace=wrap;html=1;fillColor=#f8cecc;strokeColor=#b85450;" vertex="1" parent="1">
          <mxGeometry x="978" y="-48" width="157" height="60" as="geometry" />
        </mxCell>
        <mxCell id="o8rw83za9aMopGADPDXD-10" style="edgeStyle=orthogonalEdgeStyle;rounded=0;orthogonalLoop=1;jettySize=auto;html=1;" edge="1" parent="1" source="dPNxguPu4gz0hhFSu7R7-11" target="FqFkVFzxnZ7qkO9W-dHn-27">
          <mxGeometry relative="1" as="geometry" />
        </mxCell>
        <mxCell id="o8rw83za9aMopGADPDXD-11" style="edgeStyle=orthogonalEdgeStyle;rounded=0;orthogonalLoop=1;jettySize=auto;html=1;entryX=0.5;entryY=0;entryDx=0;entryDy=0;" edge="1" parent="1" source="dPNxguPu4gz0hhFSu7R7-11" target="FqFkVFzxnZ7qkO9W-dHn-32">
          <mxGeometry relative="1" as="geometry" />
        </mxCell>
        <mxCell id="dPNxguPu4gz0hhFSu7R7-11" value="0" style="rounded=0;whiteSpace=wrap;html=1;fillColor=#f8cecc;strokeColor=#b85450;" vertex="1" parent="1">
          <mxGeometry x="522" y="-48" width="439.5" height="60" as="geometry" />
        </mxCell>
        <mxCell id="dPNxguPu4gz0hhFSu7R7-12" value="status" style="rounded=0;whiteSpace=wrap;html=1;fillColor=#1ba1e2;fontColor=#ffffff;strokeColor=#006EAF;" vertex="1" parent="1">
          <mxGeometry x="-250" y="-48" width="94" height="60" as="geometry" />
        </mxCell>
        <mxCell id="dPNxguPu4gz0hhFSu7R7-13" value="execution_time" style="rounded=0;whiteSpace=wrap;html=1;fillColor=#1ba1e2;fontColor=#ffffff;strokeColor=#006EAF;" vertex="1" parent="1">
          <mxGeometry x="-250" y="166" width="94" height="60" as="geometry" />
        </mxCell>
        <mxCell id="dPNxguPu4gz0hhFSu7R7-14" value="create_date" style="rounded=0;whiteSpace=wrap;html=1;fillColor=#1ba1e2;fontColor=#ffffff;strokeColor=#006EAF;" vertex="1" parent="1">
          <mxGeometry x="-250" y="77" width="94" height="60" as="geometry" />
        </mxCell>
        <mxCell id="o8rw83za9aMopGADPDXD-29" style="rounded=0;orthogonalLoop=1;jettySize=auto;html=1;entryX=0.5;entryY=0;entryDx=0;entryDy=0;exitX=0.5;exitY=1;exitDx=0;exitDy=0;" edge="1" parent="1" source="dPNxguPu4gz0hhFSu7R7-15" target="o8rw83za9aMopGADPDXD-19">
          <mxGeometry relative="1" as="geometry" />
        </mxCell>
        <mxCell id="dPNxguPu4gz0hhFSu7R7-15" value="&lt;pre class=&quot;graf graf--pre&quot;&gt;&lt;font face=&quot;Helvetica&quot;&gt;&lt;span style=&quot;white-space: normal;&quot;&gt;0&lt;/span&gt;&lt;/font&gt;&lt;/pre&gt;" style="rounded=0;whiteSpace=wrap;html=1;fillColor=#647687;strokeColor=#314354;fontColor=#ffffff;" vertex="1" parent="1">
          <mxGeometry x="-132" y="166" width="34" height="60" as="geometry" />
        </mxCell>
        <mxCell id="FqFkVFzxnZ7qkO9W-dHn-2" value="" style="edgeStyle=orthogonalEdgeStyle;rounded=0;orthogonalLoop=1;jettySize=auto;html=1;" edge="1" parent="1" source="FqFkVFzxnZ7qkO9W-dHn-1" target="dPNxguPu4gz0hhFSu7R7-11">
          <mxGeometry relative="1" as="geometry" />
        </mxCell>
        <mxCell id="FqFkVFzxnZ7qkO9W-dHn-1" value="Data we are going to query" style="rounded=0;whiteSpace=wrap;html=1;fillColor=#dae8fc;strokeColor=#6c8ebf;" vertex="1" parent="1">
          <mxGeometry x="520" y="-155" width="123" height="66" as="geometry" />
        </mxCell>
        <mxCell id="FqFkVFzxnZ7qkO9W-dHn-5" value="&lt;pre class=&quot;graf graf--pre&quot;&gt;&lt;span style=&quot;background-color: initial; font-family: Helvetica; white-space: normal;&quot;&gt;2012-01-01 00:00:00&amp;nbsp;&lt;/span&gt;&lt;/pre&gt;" style="rounded=0;whiteSpace=wrap;html=1;fillColor=#e1d5e7;strokeColor=#9673a6;" vertex="1" parent="1">
          <mxGeometry x="-133" y="80" width="163" height="60" as="geometry" />
        </mxCell>
        <mxCell id="o8rw83za9aMopGADPDXD-28" style="rounded=0;orthogonalLoop=1;jettySize=auto;html=1;entryX=0.5;entryY=0;entryDx=0;entryDy=0;" edge="1" parent="1" source="FqFkVFzxnZ7qkO9W-dHn-9" target="o8rw83za9aMopGADPDXD-13">
          <mxGeometry relative="1" as="geometry" />
        </mxCell>
        <mxCell id="FqFkVFzxnZ7qkO9W-dHn-9" value="&lt;pre class=&quot;graf graf--pre&quot;&gt;&lt;font face=&quot;Helvetica&quot;&gt;&lt;span style=&quot;white-space: normal;&quot;&gt;1&lt;/span&gt;&lt;/font&gt;&lt;/pre&gt;" style="rounded=0;whiteSpace=wrap;html=1;fillColor=#647687;strokeColor=#314354;fontColor=#ffffff;" vertex="1" parent="1">
          <mxGeometry x="-89" y="166" width="34" height="60" as="geometry" />
        </mxCell>
        <mxCell id="o8rw83za9aMopGADPDXD-30" style="edgeStyle=orthogonalEdgeStyle;rounded=0;orthogonalLoop=1;jettySize=auto;html=1;entryX=0.5;entryY=0;entryDx=0;entryDy=0;" edge="1" parent="1" source="FqFkVFzxnZ7qkO9W-dHn-10" target="o8rw83za9aMopGADPDXD-18">
          <mxGeometry relative="1" as="geometry" />
        </mxCell>
        <mxCell id="FqFkVFzxnZ7qkO9W-dHn-10" value="&lt;pre class=&quot;graf graf--pre&quot;&gt;&lt;font face=&quot;Helvetica&quot;&gt;&lt;span style=&quot;white-space: normal;&quot;&gt;99&lt;/span&gt;&lt;/font&gt;&lt;/pre&gt;" style="rounded=0;whiteSpace=wrap;html=1;fillColor=#647687;strokeColor=#314354;fontColor=#ffffff;" vertex="1" parent="1">
          <mxGeometry x="-3.5" y="168" width="34" height="60" as="geometry" />
        </mxCell>
        <mxCell id="FqFkVFzxnZ7qkO9W-dHn-12" value="......." style="text;html=1;align=center;verticalAlign=middle;whiteSpace=wrap;rounded=0;" vertex="1" parent="1">
          <mxGeometry x="-63.5" y="179" width="60" height="30" as="geometry" />
        </mxCell>
        <mxCell id="FqFkVFzxnZ7qkO9W-dHn-15" value="&lt;pre class=&quot;graf graf--pre&quot;&gt;&lt;font face=&quot;Helvetica&quot;&gt;&lt;span style=&quot;white-space: normal;&quot;&gt;0&lt;/span&gt;&lt;/font&gt;&lt;/pre&gt;" style="rounded=0;whiteSpace=wrap;html=1;fillColor=#647687;strokeColor=#314354;fontColor=#ffffff;" vertex="1" parent="1">
          <mxGeometry x="57" y="167" width="34" height="60" as="geometry" />
        </mxCell>
        <mxCell id="FqFkVFzxnZ7qkO9W-dHn-16" value="&lt;pre class=&quot;graf graf--pre&quot;&gt;&lt;span style=&quot;background-color: initial; font-family: Helvetica; white-space: normal;&quot;&gt;2012-01-01 00:00:00&amp;nbsp;&lt;/span&gt;&lt;/pre&gt;" style="rounded=0;whiteSpace=wrap;html=1;fillColor=#e1d5e7;strokeColor=#9673a6;" vertex="1" parent="1">
          <mxGeometry x="56" y="81" width="163" height="60" as="geometry" />
        </mxCell>
        <mxCell id="FqFkVFzxnZ7qkO9W-dHn-17" value="&lt;pre class=&quot;graf graf--pre&quot;&gt;&lt;font face=&quot;Helvetica&quot;&gt;&lt;span style=&quot;white-space: normal;&quot;&gt;1&lt;/span&gt;&lt;/font&gt;&lt;/pre&gt;" style="rounded=0;whiteSpace=wrap;html=1;fillColor=#647687;strokeColor=#314354;fontColor=#ffffff;" vertex="1" parent="1">
          <mxGeometry x="100" y="167" width="34" height="60" as="geometry" />
        </mxCell>
        <mxCell id="FqFkVFzxnZ7qkO9W-dHn-18" value="&lt;pre class=&quot;graf graf--pre&quot;&gt;&lt;font face=&quot;Helvetica&quot;&gt;&lt;span style=&quot;white-space: normal;&quot;&gt;99&lt;/span&gt;&lt;/font&gt;&lt;/pre&gt;" style="rounded=0;whiteSpace=wrap;html=1;fillColor=#647687;strokeColor=#314354;fontColor=#ffffff;" vertex="1" parent="1">
          <mxGeometry x="185.5" y="169" width="34" height="60" as="geometry" />
        </mxCell>
        <mxCell id="FqFkVFzxnZ7qkO9W-dHn-19" value="......." style="text;html=1;align=center;verticalAlign=middle;whiteSpace=wrap;rounded=0;" vertex="1" parent="1">
          <mxGeometry x="125.5" y="180" width="60" height="30" as="geometry" />
        </mxCell>
        <mxCell id="FqFkVFzxnZ7qkO9W-dHn-20" value="&lt;pre class=&quot;graf graf--pre&quot;&gt;&lt;font face=&quot;Helvetica&quot;&gt;&lt;span style=&quot;white-space: normal;&quot;&gt;0&lt;/span&gt;&lt;/font&gt;&lt;/pre&gt;" style="rounded=0;whiteSpace=wrap;html=1;fillColor=#647687;strokeColor=#314354;fontColor=#ffffff;" vertex="1" parent="1">
          <mxGeometry x="328" y="166" width="34" height="60" as="geometry" />
        </mxCell>
        <mxCell id="FqFkVFzxnZ7qkO9W-dHn-21" value="&lt;pre class=&quot;graf graf--pre&quot;&gt;&lt;span style=&quot;background-color: initial; font-family: Helvetica; white-space: normal;&quot;&gt;2012-09-20 21:19:00&amp;nbsp;&lt;/span&gt;&lt;/pre&gt;" style="rounded=0;whiteSpace=wrap;html=1;fillColor=#e1d5e7;strokeColor=#9673a6;" vertex="1" parent="1">
          <mxGeometry x="330" y="84" width="163" height="60" as="geometry" />
        </mxCell>
        <mxCell id="FqFkVFzxnZ7qkO9W-dHn-22" value="&lt;pre class=&quot;graf graf--pre&quot;&gt;&lt;font face=&quot;Helvetica&quot;&gt;&lt;span style=&quot;white-space: normal;&quot;&gt;1&lt;/span&gt;&lt;/font&gt;&lt;/pre&gt;" style="rounded=0;whiteSpace=wrap;html=1;fillColor=#647687;strokeColor=#314354;fontColor=#ffffff;" vertex="1" parent="1">
          <mxGeometry x="371" y="166" width="34" height="60" as="geometry" />
        </mxCell>
        <mxCell id="FqFkVFzxnZ7qkO9W-dHn-23" value="&lt;pre class=&quot;graf graf--pre&quot;&gt;&lt;font face=&quot;Helvetica&quot;&gt;&lt;span style=&quot;white-space: normal;&quot;&gt;99&lt;/span&gt;&lt;/font&gt;&lt;/pre&gt;" style="rounded=0;whiteSpace=wrap;html=1;fillColor=#647687;strokeColor=#314354;fontColor=#ffffff;" vertex="1" parent="1">
          <mxGeometry x="459" y="166" width="34" height="60" as="geometry" />
        </mxCell>
        <mxCell id="FqFkVFzxnZ7qkO9W-dHn-24" value="......." style="text;html=1;align=center;verticalAlign=middle;whiteSpace=wrap;rounded=0;" vertex="1" parent="1">
          <mxGeometry x="396.5" y="179" width="60" height="30" as="geometry" />
        </mxCell>
        <mxCell id="FqFkVFzxnZ7qkO9W-dHn-25" value="......." style="text;html=1;align=center;verticalAlign=middle;whiteSpace=wrap;rounded=0;" vertex="1" parent="1">
          <mxGeometry x="242" y="96" width="60" height="30" as="geometry" />
        </mxCell>
        <mxCell id="o8rw83za9aMopGADPDXD-26" style="rounded=0;orthogonalLoop=1;jettySize=auto;html=1;exitX=0.5;exitY=1;exitDx=0;exitDy=0;entryX=0;entryY=0.5;entryDx=0;entryDy=0;" edge="1" parent="1" source="FqFkVFzxnZ7qkO9W-dHn-26" target="o8rw83za9aMopGADPDXD-22">
          <mxGeometry relative="1" as="geometry">
            <mxPoint x="577" y="271" as="targetPoint" />
          </mxGeometry>
        </mxCell>
        <mxCell id="FqFkVFzxnZ7qkO9W-dHn-26" value="&lt;pre class=&quot;graf graf--pre&quot;&gt;&lt;font face=&quot;Helvetica&quot;&gt;&lt;span style=&quot;white-space: normal;&quot;&gt;0&lt;/span&gt;&lt;/font&gt;&lt;/pre&gt;" style="rounded=0;whiteSpace=wrap;html=1;fillColor=#647687;strokeColor=#314354;fontColor=#ffffff;" vertex="1" parent="1">
          <mxGeometry x="520" y="166" width="34" height="60" as="geometry" />
        </mxCell>
        <mxCell id="pqtOe0joOE0Dy9z5Qx2X-1" style="edgeStyle=orthogonalEdgeStyle;rounded=0;orthogonalLoop=1;jettySize=auto;html=1;" edge="1" parent="1" source="FqFkVFzxnZ7qkO9W-dHn-27" target="FqFkVFzxnZ7qkO9W-dHn-26">
          <mxGeometry relative="1" as="geometry">
            <Array as="points">
              <mxPoint x="602" y="155" />
              <mxPoint x="537" y="155" />
            </Array>
          </mxGeometry>
        </mxCell>
        <mxCell id="pqtOe0joOE0Dy9z5Qx2X-2" style="edgeStyle=orthogonalEdgeStyle;rounded=0;orthogonalLoop=1;jettySize=auto;html=1;entryX=0.75;entryY=0;entryDx=0;entryDy=0;" edge="1" parent="1" source="FqFkVFzxnZ7qkO9W-dHn-27" target="FqFkVFzxnZ7qkO9W-dHn-29">
          <mxGeometry relative="1" as="geometry">
            <Array as="points">
              <mxPoint x="602" y="155" />
              <mxPoint x="677" y="155" />
            </Array>
          </mxGeometry>
        </mxCell>
        <mxCell id="FqFkVFzxnZ7qkO9W-dHn-27" value="&lt;pre class=&quot;graf graf--pre&quot;&gt;&lt;span style=&quot;background-color: initial; font-family: Helvetica; white-space: normal;&quot;&gt;2012-09-20 21:20:00&amp;nbsp;&lt;/span&gt;&lt;/pre&gt;" style="rounded=0;whiteSpace=wrap;html=1;fillColor=#e1d5e7;strokeColor=#9673a6;" vertex="1" parent="1">
          <mxGeometry x="522" y="84" width="163" height="60" as="geometry" />
        </mxCell>
        <mxCell id="o8rw83za9aMopGADPDXD-27" style="rounded=0;orthogonalLoop=1;jettySize=auto;html=1;entryX=0;entryY=0.5;entryDx=0;entryDy=0;exitX=0.5;exitY=1;exitDx=0;exitDy=0;" edge="1" parent="1" source="FqFkVFzxnZ7qkO9W-dHn-28" target="o8rw83za9aMopGADPDXD-20">
          <mxGeometry relative="1" as="geometry" />
        </mxCell>
        <mxCell id="FqFkVFzxnZ7qkO9W-dHn-28" value="&lt;pre class=&quot;graf graf--pre&quot;&gt;&lt;font face=&quot;Helvetica&quot;&gt;&lt;span style=&quot;white-space: normal;&quot;&gt;1&lt;/span&gt;&lt;/font&gt;&lt;/pre&gt;" style="rounded=0;whiteSpace=wrap;html=1;fillColor=#647687;strokeColor=#314354;fontColor=#ffffff;" vertex="1" parent="1">
          <mxGeometry x="563" y="166" width="34" height="60" as="geometry" />
        </mxCell>
        <mxCell id="FqFkVFzxnZ7qkO9W-dHn-29" value="&lt;pre class=&quot;graf graf--pre&quot;&gt;&lt;font face=&quot;Helvetica&quot;&gt;&lt;span style=&quot;white-space: normal;&quot;&gt;99&lt;/span&gt;&lt;/font&gt;&lt;/pre&gt;" style="rounded=0;whiteSpace=wrap;html=1;fillColor=#647687;strokeColor=#314354;fontColor=#ffffff;" vertex="1" parent="1">
          <mxGeometry x="651" y="166" width="34" height="60" as="geometry" />
        </mxCell>
        <mxCell id="FqFkVFzxnZ7qkO9W-dHn-30" value="......." style="text;html=1;align=center;verticalAlign=middle;whiteSpace=wrap;rounded=0;" vertex="1" parent="1">
          <mxGeometry x="588.5" y="179" width="60" height="30" as="geometry" />
        </mxCell>
        <mxCell id="FqFkVFzxnZ7qkO9W-dHn-31" value="&lt;pre class=&quot;graf graf--pre&quot;&gt;&lt;font face=&quot;Helvetica&quot;&gt;&lt;span style=&quot;white-space: normal;&quot;&gt;0&lt;/span&gt;&lt;/font&gt;&lt;/pre&gt;" style="rounded=0;whiteSpace=wrap;html=1;fillColor=#647687;strokeColor=#314354;fontColor=#ffffff;" vertex="1" parent="1">
          <mxGeometry x="711" y="166" width="34" height="60" as="geometry" />
        </mxCell>
        <mxCell id="FqFkVFzxnZ7qkO9W-dHn-32" value="&lt;pre class=&quot;graf graf--pre&quot;&gt;&lt;span style=&quot;background-color: initial; font-family: Helvetica; white-space: normal;&quot;&gt;2012-09-20 21:21:00&amp;nbsp;&lt;/span&gt;&lt;/pre&gt;" style="rounded=0;whiteSpace=wrap;html=1;fillColor=#e1d5e7;strokeColor=#9673a6;" vertex="1" parent="1">
          <mxGeometry x="711" y="84" width="163" height="60" as="geometry" />
        </mxCell>
        <mxCell id="FqFkVFzxnZ7qkO9W-dHn-33" value="&lt;pre class=&quot;graf graf--pre&quot;&gt;&lt;font face=&quot;Helvetica&quot;&gt;&lt;span style=&quot;white-space: normal;&quot;&gt;1&lt;/span&gt;&lt;/font&gt;&lt;/pre&gt;" style="rounded=0;whiteSpace=wrap;html=1;fillColor=#647687;strokeColor=#314354;fontColor=#ffffff;" vertex="1" parent="1">
          <mxGeometry x="754" y="166" width="34" height="60" as="geometry" />
        </mxCell>
        <mxCell id="FqFkVFzxnZ7qkO9W-dHn-34" value="&lt;pre class=&quot;graf graf--pre&quot;&gt;&lt;font face=&quot;Helvetica&quot;&gt;&lt;span style=&quot;white-space: normal;&quot;&gt;99&lt;/span&gt;&lt;/font&gt;&lt;/pre&gt;" style="rounded=0;whiteSpace=wrap;html=1;fillColor=#647687;strokeColor=#314354;fontColor=#ffffff;" vertex="1" parent="1">
          <mxGeometry x="842" y="166" width="34" height="60" as="geometry" />
        </mxCell>
        <mxCell id="FqFkVFzxnZ7qkO9W-dHn-35" value="......." style="text;html=1;align=center;verticalAlign=middle;whiteSpace=wrap;rounded=0;" vertex="1" parent="1">
          <mxGeometry x="779.5" y="179" width="60" height="30" as="geometry" />
        </mxCell>
        <mxCell id="FqFkVFzxnZ7qkO9W-dHn-36" value="......." style="text;html=1;align=center;verticalAlign=middle;whiteSpace=wrap;rounded=0;" vertex="1" parent="1">
          <mxGeometry x="889" y="92" width="60" height="30" as="geometry" />
        </mxCell>
        <mxCell id="o8rw83za9aMopGADPDXD-13" value="&lt;pre class=&quot;graf graf--pre&quot;&gt;&lt;font face=&quot;Helvetica&quot;&gt;&lt;span style=&quot;white-space: normal;&quot;&gt;0&lt;/span&gt;&lt;/font&gt;&lt;/pre&gt;" style="rounded=0;whiteSpace=wrap;html=1;fillColor=#76608a;strokeColor=#432D57;fontColor=#ffffff;" vertex="1" parent="1">
          <mxGeometry x="-132" y="275" width="34" height="60" as="geometry" />
        </mxCell>
        <mxCell id="o8rw83za9aMopGADPDXD-14" value="id" style="rounded=0;whiteSpace=wrap;html=1;fillColor=#1ba1e2;fontColor=#ffffff;strokeColor=#006EAF;" vertex="1" parent="1">
          <mxGeometry x="-250" y="275" width="94" height="60" as="geometry" />
        </mxCell>
        <mxCell id="o8rw83za9aMopGADPDXD-17" value="&lt;pre class=&quot;graf graf--pre&quot;&gt;&lt;font face=&quot;Helvetica&quot;&gt;&lt;span style=&quot;white-space: normal;&quot;&gt;1&lt;/span&gt;&lt;/font&gt;&lt;/pre&gt;" style="rounded=0;whiteSpace=wrap;html=1;fillColor=#76608a;strokeColor=#432D57;fontColor=#ffffff;" vertex="1" parent="1">
          <mxGeometry x="-89" y="275" width="34" height="60" as="geometry" />
        </mxCell>
        <mxCell id="o8rw83za9aMopGADPDXD-18" value="&lt;pre class=&quot;graf graf--pre&quot;&gt;&lt;font face=&quot;Helvetica&quot;&gt;&lt;span style=&quot;white-space: normal;&quot;&gt;99&lt;/span&gt;&lt;/font&gt;&lt;/pre&gt;" style="rounded=0;whiteSpace=wrap;html=1;fillColor=#76608a;strokeColor=#432D57;fontColor=#ffffff;" vertex="1" parent="1">
          <mxGeometry x="-3.5" y="275" width="34" height="60" as="geometry" />
        </mxCell>
        <mxCell id="o8rw83za9aMopGADPDXD-19" value="&lt;pre class=&quot;graf graf--pre&quot;&gt;&lt;font face=&quot;Helvetica&quot;&gt;&lt;span style=&quot;white-space: normal;&quot;&gt;100&lt;/span&gt;&lt;/font&gt;&lt;/pre&gt;" style="rounded=0;whiteSpace=wrap;html=1;fillColor=#76608a;strokeColor=#432D57;fontColor=#ffffff;" vertex="1" parent="1">
          <mxGeometry x="56" y="275" width="34" height="60" as="geometry" />
        </mxCell>
        <mxCell id="o8rw83za9aMopGADPDXD-20" value="&lt;pre class=&quot;graf graf--pre&quot;&gt;&lt;font face=&quot;Helvetica&quot;&gt;&lt;span style=&quot;white-space: normal;&quot;&gt;380001&lt;/span&gt;&lt;/font&gt;&lt;/pre&gt;" style="rounded=0;whiteSpace=wrap;html=1;fillColor=#76608a;strokeColor=#432D57;fontColor=#ffffff;rotation=90;" vertex="1" parent="1">
          <mxGeometry x="505" y="286" width="61" height="34.5" as="geometry" />
        </mxCell>
        <mxCell id="o8rw83za9aMopGADPDXD-22" value="&lt;pre class=&quot;graf graf--pre&quot;&gt;&lt;font face=&quot;Helvetica&quot;&gt;&lt;span style=&quot;white-space: normal;&quot;&gt;380002&lt;/span&gt;&lt;/font&gt;&lt;/pre&gt;" style="rounded=0;whiteSpace=wrap;html=1;fillColor=#76608a;strokeColor=#432D57;fontColor=#ffffff;rotation=90;" vertex="1" parent="1">
          <mxGeometry x="549.5" y="286" width="61" height="34.5" as="geometry" />
        </mxCell>
        <mxCell id="o8rw83za9aMopGADPDXD-23" value="&lt;pre class=&quot;graf graf--pre&quot;&gt;&lt;font face=&quot;Helvetica&quot;&gt;&lt;span style=&quot;white-space: normal;&quot;&gt;400000&lt;/span&gt;&lt;/font&gt;&lt;/pre&gt;" style="rounded=0;whiteSpace=wrap;html=1;fillColor=#76608a;strokeColor=#432D57;fontColor=#ffffff;rotation=90;" vertex="1" parent="1">
          <mxGeometry x="910" y="287.75" width="61" height="34.5" as="geometry" />
        </mxCell>
        <mxCell id="o8rw83za9aMopGADPDXD-25" value="......." style="text;html=1;align=center;verticalAlign=middle;whiteSpace=wrap;rounded=0;" vertex="1" parent="1">
          <mxGeometry x="607" y="288.25" width="60" height="30" as="geometry" />
        </mxCell>
      </root>
    </mxGraphModel>
  </diagram>
</mxfile>
